<svg version="1.2" xmlns="http://www.w3.org/2000/svg" viewBox="0 0 500 500" width="150" height="150">
	<title>17539369_5874878-svg</title>
	<defs>
		<clipPath clipPathUnits="userSpaceOnUse" id="cp1">
			<path d="m250.09 496.84c-137.33 0-248.34-111.01-248.34-248.34 0-137.33 111.01-248.34 248.34-248.34 137.33 0 248.34 111.01 248.34 248.34 0 137.33-111.01 248.34-248.34 248.34z"/>
		</clipPath>
	</defs>
	<style>
		.s0 { fill: #f6efe9 } 
		.s1 { fill: #f9bf9a } 
		.s2 { fill: #bf7d5d } 
		.s3 { fill: #ae4136 } 
		.s4 { fill: #892d2b } 
		.s5 { fill: #02020c } 
		.s6 { fill: #f4efe9 } 
	</style>
	<g>
		<path id="SVGID_1_" class="s0" d="m250.1 496.8c-137.3 0-248.4-111-248.4-248.3 0-137.3 111.1-248.3 248.4-248.3 137.3 0 248.3 111 248.3 248.3 0 137.3-111 248.3-248.3 248.3z"/>
		<g id="Clip-Path" clip-path="url(#cp1)">
			<g>
				<g>
					<g>
						<g>
							<path class="s1" d="m378.3 194.2q-0.5-1.9-1.2-3.7c-0.5-1.2-1.1-2.6-2.5-3.7-1.2-1-2.9-1.4-4.3-1.4-1.5 0-2.9 0.4-4.2 0.9-2.3 0.9-4.4 2.4-6.2 4.1q0.1-0.5 0.1-1 0.3-3.1 0.5-6.3c0.4-8.3 0-16.7-1.2-25-1.1-8.3-3.2-16.5-6.2-24.4-3.1-7.8-7.2-15.3-12.3-22-5.2-6.7-11.4-12.7-18.3-17.5-7-4.7-14.6-8.4-22.5-11.2-4-1.2-8-2.6-12.1-3.4l-3-0.7c-1-0.3-2-0.5-3.1-0.6l-6.2-0.9c-1-0.2-2-0.4-3.1-0.4l-3.1-0.3-6.2-0.5c-1-0.1-1.9 0-2.9-0.1l-2.9 0.1-5.9 0.1c0.2 0.2 0.3 0.5 0.3 0.7l-1-1q-0.6 0-1.2 0h-1c-16.2 0.3-32.5 2.4-47.9 7.8-7.7 2.9-15.3 6.6-22.1 11.3-6.9 4.8-13 10.6-18.1 17.2-10.2 13.3-16.1 29.5-18.5 45.9-1.2 8.3-1.7 16.6-1.3 24.9 0.1 2.8 0.3 5.6 0.6 8.4q-0.4-0.4-0.7-0.7c-1.9-1.8-4.1-3.5-6.7-4.5-1.3-0.5-2.7-0.9-4.1-0.9-1.5 0-3.1 0.4-4.4 1.4-1.3 1.1-2 2.5-2.4 3.6q-0.8 1.9-1.3 3.8c-1.3 5-1.2 10.3-0.7 15.3 0.6 5 1.7 9.9 2.8 14.8l1.5 7.3c0.5 2.5 1 4.9 1.6 7.4 1.2 4.8 2.7 9.8 5.3 14.2 1.3 2.2 2.9 4.3 4.6 6.1q1.3 1.4 2.6 2.7c0.9 0.9 1.9 1.8 2.9 2.6 2.1 1.6 4.9 2.7 7.8 2 0.7-0.1 1.5-0.5 2.1-0.8 0.5-0.4 1.1-0.8 1.6-1 0.4-0.3 0.9-0.5 1.3-0.5 0.4 0 0.6 0.1 0.7 0.2l0.2-0.5 3.5 16.3 2.5 12c1 4.2 2.7 8.3 5 11.8q1.8 2.7 4.1 5 0.9 1 2 1.9-0.1 0.1-0.1 0.2c0 7.6 0.2 15.2 0.3 22.7l0.6 22.7q0.1 7.3 0.2 14.5l-3.6 4.6c-1.5 1.9-3 3.8-4.6 5.7q-2.3 2.8-4.7 5.5c-1.7 1.8-3.3 3.6-4.9 5.5l1 1.2q0.2-0.1 0.3-0.1c11.1 8.7 92.6 68.4 183-0.2q0.2 0.1 0.3 0.2l1.1-1.2c-1.6-1.9-3.2-3.7-4.8-5.5q-2.4-2.7-4.8-5.5c-1.5-1.8-3-3.7-4.5-5.6l-3.9-5q0.3-8 0.9-15.9c0.5-7.7 1.3-15.4 1.5-23.1 0.4-7.5 0.8-15 2.6-22.3q0.1-0.2 0.3-0.3 2.3-2.3 4-5c2.4-3.6 4.1-7.6 5.1-11.8l2.6-12 3.4-15.9q0.2-0.1 0.6-0.1c0.4 0 0.8 0.2 1.3 0.5 0.5 0.2 1 0.6 1.6 1 0.6 0.3 1.3 0.7 2 0.8 2.9 0.7 5.7-0.4 7.8-2 1.1-0.8 2-1.7 2.9-2.6q1.3-1.3 2.6-2.7c1.8-1.8 3.4-3.9 4.7-6.1 2.5-4.4 4-9.4 5.2-14.2 0.6-2.5 1.1-4.9 1.6-7.4l1.6-7.3c1.1-4.9 2.1-9.8 2.7-14.8 0.6-5 0.7-10.3-0.7-15.3z"/>
						</g>
						<g>
							<path class="s2" d="m326.3 310.5c0 0-16.1 98.9-97.7 83.8 0 0-37.8-7.3-51.1-45.8l-3.1-36.7c0 0 28 22.3 32.5 25.8 4.4 3.4 27.5 20 41.8 20.8 0 0 21.9-0.1 52.9-28.3z"/>
						</g>
						<g>
							<path class="s2" d="m124.6 201.2c3.9-1.8 10 1.8 12.3 5.4 2.3 3.8 2.9 8.4 2.9 12.9 0.1 4.5-0.3 9 0.3 13.4 0.9 5.9 3.6 11.3 6.8 16.3 3.2 4.9 6.9 9.6 10 14.6-2.3-9.8-3.4-19.8-5.8-29.6-2.4-10-5.2-19.9-7.2-30-0.9-4.7-1.8-9.6-4.9-13.2-2.4-2.8-6-4.4-9.6-4.4-0.9 0-1.8 0.1-2.5 0.6-0.5 0.4-0.9 1.1-1.2 1.7-2.1 4.1-4.9 11-3.9 15.7 0.6-1.8 1.6-2.9 2.8-3.4z"/>
						</g>
						<g>
							<path class="s2" d="m374.2 201.2c-3.9-1.8-10.1 1.8-12.3 5.4-2.4 3.8-2.9 8.4-3 12.9 0 4.5 0.4 9-0.3 13.4-0.9 5.9-3.6 11.3-6.8 16.3-3.2 4.9-6.9 9.6-10 14.6 2.4-9.8 3.5-19.8 5.9-29.6 2.4-10 5.2-19.9 7.2-30 0.9-4.7 1.7-9.6 4.9-13.2 2.3-2.8 6-4.4 9.6-4.4 0.8 0 1.7 0.1 2.4 0.6 0.6 0.4 0.9 1.1 1.3 1.7 2 4.1 4.9 11 3.9 15.7-0.6-1.8-1.6-2.9-2.8-3.4z"/>
						</g>
						<g>
							<path class="s2" d="m234.9 243.2c0 0 1.9-12.5 2.4-26.3 0.5-14.6-0.4-30.5-0.4-30.5l-11.5-9.2-20.5-6.8c0 0-25.1 3-25.6 3.3-0.6 0.3-11.8 7.9-11.8 7.9l11.8-3.2c5.1 0.2 10.6-0.1 16.1-0.2 7.1 0 13.3 1.4 20.7 2.9 2.4 0.5 4.5 2.1 6.5 3.6 4 2.9 7.3 14.4 8.5 16.6 0.9 1.7 0.8 2.9 0.9 4.8q0.5 9.8 1 19.7c0.3 5.5 0.6 10.1 1.9 17.4z"/>
						</g>
						<g>
							<path class="s2" d="m246.3 329.6l10.4-5.5-1.7 8.6-7.1 0.5z"/>
						</g>
						<g>
							<path class="s2" d="m263.6 281.4c0 0-4.6 0.5-5.9-0.3l-7 1.1-7-1.1c-1.3 0.8-5.9 0.3-5.9 0.3 7.7 7 12.4 6.1 12.9 5.9 0.6 0.2 5.2 1.1 12.9-5.9z"/>
						</g>
						<g>
							<path class="s2" d="m262.7 186.4l13.2-4.2 27.7-4.4 18.2 1.3 10.5 2.5-13.2-6.6-28.2-3.9-19.8 6.5z"/>
						</g>
					</g>
					<g>
						<g>
							<path class="s3" d="m345.4 384l13.9 10.5 1.3 8.2c0 0 29.5 16.1 36 17.8 6.5 1.7 63.4 19.9 67.7 21.7 4.3 1.7 21.3 10 23.4 16.9 2.2 7 11.3 43 11.3 43h-499c0 0 10.8-39.1 14.8-43.9 3.9-4.7 13.8-15.6 33.4-19.5 19.5-3.9 55.1-17.3 59-19.5 3.9-2.2 29.5-15.2 29.5-15.2l1.3-6.5 5.2-5.6 8.2-7 4.8 7.4c0 0 33 22.6 92.9 21.7 0 0 50.3 0.9 91.5-21.3z"/>
						</g>
						<g>
							<g>
								<path class="s4" d="m149.8 499.6c-15.9-0.7-31.8-3-46.5-8.9-9.2-3.7-18.3-9.2-23.2-17.8-2.5-4.5-3.8-9.5-4.3-14.6-0.2-2.3-0.5-4.4 0.2-6.7q1.1-3.3 2.6-6.6c2.5-5.7 5.9-11.1 10-15.8 1.9-2.3 4.2-5.3 6.7-6.9 2.7-1.6 6.6-2 9.6-3.1 11.1-3.8 21.7-9.1 31.5-15.7 28.2 19.2 60.3 33.8 94.2 36.8 39.6 3.5 79.3-9 114-28.5q6.5-3.6 12.8-7.4c1-0.6 3.4-2.5 4.4-0.8 0.7 1.1-1.2 3.5-1.8 4.3-5.1 6.8-12.4 12.8-18.8 18.5q-10.2 8.9-21.2 16.8c-29.1 20.5-75.8 44.6-110.6 51.6-19.6 4-39.7 5.7-59.6 4.8z"/>
							</g>
							<g>
								<path class="s4" d="m427.6 435.8c7.2 7.4 17.1 11.3 26.7 14.8 1.9 0.7 3.7 1.4 5.6 1.8 6.6 1.3 13.5-0.5 20 1 1 0.2 2.1 0.6 2.5 1.6-9.9-6.2-14.9-11.3-25.7-15.8-5.3-2.3-16.3-4.5-21.8-6.3-5-1.6-11.2-4.4-16.4-4.4 3.8 1.8 6.2 4.3 9.1 7.3z"/>
							</g>
							<g>
								<path class="s4" d="m68.7 435.8c-7.1 7.4-17 11.3-26.7 14.8-1.8 0.7-3.7 1.4-5.6 1.8-6.5 1.3-13.5-0.5-20 1-1 0.2-2 0.6-2.4 1.6 9.9-6.2 20.3-11.5 31.1-16q8-3.4 16.4-6.1c4.9-1.6 11.2-4.4 16.3-4.4-3.7 1.8-6.2 4.3-9.1 7.3z"/>
							</g>
						</g>
					</g>
				</g>
				<g>
					<g>
						<path class="s5" d="m160.3 403.4c42.4 18.5 90.2 27 135.2 16.9-14.4 10.7-32.4 14.9-49.9 18.8 31.6-2.6 64-5.4 92.3-19.6 7.2-3.6 14.2-8.1 19.3-14.3 1.4-1.6 2.7-3.6 2.3-5.7-0.2-1.4-1-2.5-1.8-3.6-2.8-3.5-6.1-6.5-9.8-9-0.5-0.4-1-0.7-1.6-0.6-0.8 0.1-1.2 0.9-1.6 1.5-1.6 2.6-4.4 4.2-7.1 5.6-22.4 11.8-47.6 17.6-72.9 18.9-25.3 1.4-50.6-1.5-75.5-6.2-7.4-1.3-14.8-2.9-21.7-6.1-6.8-3.1-13.1-8-16.5-14.7-0.3-0.4-10.2 3.7-5.1 9.4 3.8 4.1 9.5 6.5 14.4 8.7z"/>
					</g>
					<g>
						<path class="s5" d="m135.3 414.3q6.5 5.2 13.5 9.4 7 4.2 14.5 7.7c9.9 4.5 20.3 8.1 30.9 10.6 10.6 2.6 21.4 4.2 32.3 5.1q8.2 0.7 16.4 0.9 8.3 0.3 16.5 0.2c0.2 0 0.4 0.1 0.4 0.3 0 0.2-0.2 0.4-0.4 0.4q-8.2 0.5-16.5 0.6-8.2 0-16.5-0.5c-11-0.7-22-2.3-32.7-4.8-10.8-2.7-21.3-6.3-31.2-11.2-5-2.5-9.8-5.2-14.4-8.2-4.6-3.1-9-6.5-13.1-10.1-0.1-0.1-0.1-0.2 0-0.3 0.1-0.1 0.2-0.2 0.3-0.1z"/>
					</g>
					<g>
						<path class="s5" d="m251.8 127.4l-42.6-5.8-41.9 26.5-30.3-4.7c0 0-0.9-88.2 114.2-84.5z"/>
					</g>
					<g>
						<g>
							<path class="s5" d="m152.7 381.7l13.6 2.1c0 0-4.4 10.7-11.7 8.2z"/>
						</g>
						<g>
							<path class="s5" d="m345.1 381.7l-13.7 2c0 0 6.1 9.1 11.7 8.3z"/>
						</g>
						<g>
							<path class="s5" d="m268.4 300l-6.7 5.2q-0.2 0.1-0.5 0.2h-0.1l-25.6 2.2c-0.3 0-0.5-0.2-0.5-0.5-0.1-0.2 0.1-0.5 0.4-0.5l25.2-4.5-0.6 0.2 7.9-3.2c0.2-0.1 0.5 0 0.7 0.3 0 0.2 0 0.4-0.2 0.6z"/>
						</g>
						<g>
							<path class="s5" d="m175.3 311.1c1 7.5 1.6 15.1 2 22.7q0.5 11.4 0.4 22.8c0 7.6-0.1 15.2-0.6 22.8-0.4 7.6-1 15.2-2.1 22.7 0 0.3-0.3 0.5-0.6 0.4-0.2 0-0.4-0.2-0.4-0.5 0.3-7.5 0.3-15.1 0.2-22.7-0.1-7.5-0.1-15.1-0.3-22.7l-0.6-22.7c-0.1-7.5-0.2-15.1-0.3-22.7 0-0.6 0.5-1.1 1.2-1.1 0.6 0 1.1 0.4 1.1 1z"/>
						</g>
						<g>
							<path class="s5" d="m156.3 392.4c3.2-3.8 6.5-7.3 9.6-11 3.2-3.7 6.1-7.6 9.1-11.5l1.6 0.9c-1.9 4.7-4.7 9-7.9 12.9-3.3 3.8-7 7.3-11.4 9.9z"/>
						</g>
						<g>
							<path class="s5" d="m228.2 360.1c1.6 5.3 3.7 10.5 6.3 15.4 2.6 5 5.7 9.7 9.2 14.1 0.1 0.2 0.1 0.6-0.1 0.7-0.3 0.2-0.6 0.2-0.8 0-3.8-4.2-7-9-9.6-14-2.6-5.1-4.7-10.5-6-16 0-0.3 0.1-0.5 0.4-0.6 0.2 0 0.5 0.1 0.6 0.4z"/>
						</g>
						<g>
							<path class="s5" d="m237.5 199.2c0.3 3.7 0.5 7.4 0.6 11.1q0 5.5-0.2 11.1c-0.2 3.7-0.3 7.4-0.7 11.1-0.5 3.6-1 7.3-1.9 10.9 0 0.2-0.1 0.3-0.3 0.2-0.1 0-0.2-0.1-0.2-0.2 0.4-3.7 0.6-7.4 0.8-11.1 0.1-3.6 0.3-7.3 0.4-11l0.4-11.1c0.2-3.6 0.4-7.3 0.6-11 0.1-0.1 0.2-0.2 0.3-0.2 0.1 0 0.2 0.1 0.2 0.2z"/>
						</g>
						<g>
							<path fill-rule="evenodd" class="s5" d="m251.5 76.3c4 0 7.7-0.1 11.7 0.1l6.2 0.5c2.1 0.2 4.1 0.4 6.2 0.7l6.2 1c2 0.3 4 0.9 6 1.3 4.1 0.8 8.1 2.1 12.1 3.4 7.9 2.8 15.5 6.4 22.5 11.1 6.9 4.8 13.2 10.6 18.3 17.3 5.2 6.7 9.3 14.2 12.4 22 3 7.9 5.1 16.1 6.2 24.4 1.1 8.3 1.6 16.7 1.2 25.1-0.2 4.2-0.5 8.3-1.3 12.5l-2.6 12.1-10.4 48.3-5.2 24.2-2.6 12c-1 4.2-2.7 8.2-5 11.8q-1.8 2.7-4.1 5c-1.5 1.5-3.2 2.9-4.7 4.2l-9.6 7.8c-6.4 5.2-12.8 10.4-19.3 15.4-6.5 5.1-13 10.2-20.1 14.6-7.2 4.2-15.1 7.2-23.3 8.8h-0.1-0.1-3.8-0.1-0.1c-8.2-1.6-16.1-4.6-23.3-8.8-7.1-4.4-13.6-9.5-20.1-14.5-6.5-5.1-12.9-10.3-19.3-15.5l-9.6-7.8c-1.5-1.3-3.2-2.6-4.7-4.2q-2.3-2.3-4-5c-2.4-3.6-4.1-7.6-5-11.8l-2.6-12.1-5.1-24.1c-3.4-16.1-6.8-32.2-10.1-48.4l-2.4-12.1c-0.8-4.2-1-8.3-1.2-12.5-0.4-8.3 0.1-16.6 1.3-24.9 2.4-16.4 8.3-32.6 18.5-45.9 5.1-6.6 11.2-12.4 18.1-17.2 6.8-4.7 14.4-8.4 22.1-11.3 15.5-5.3 31.7-7.5 47.9-7.8h1q0.6 0 1.2 0l1 1c0-0.2-0.1-0.5-0.3-0.7zm-2.9-0.3v1l1-1q-0.5 0-1 0zm1.5 1.7q-0.1 0-0.1-0.1l0.2-0.2 0.4 0.3q-0.3 0-0.5 0zm-0.1-0.1l-0.4 0.4q0.5 0 1 0v-0.2-0.1q0 0.1 0 0.1v-0.8l-0.4 0.4-0.4-0.4c0 0.2 0.1 0.4 0.2 0.6zm0.8 0.4q-0.1 0-0.2 0h-1c-16.4 0-32.8 2.2-48.2 7.6-7.6 2.9-15 6.6-21.6 11.3-6.7 4.6-12.5 10.4-17.4 16.9-9.8 12.9-15.4 28.7-17.7 44.8-1.1 8.1-1.5 16.3-1.1 24.4 0.2 4 0.5 8.2 1.2 12l2.6 12.1c3.4 16.1 6.7 32.2 10 48.4l4.9 24.2 2.5 12.1c0.8 3.8 2.3 7.5 4.5 10.8q1.6 2.5 3.7 4.7c1.3 1.4 2.9 2.6 4.5 4l9.4 7.9c6.4 5.2 12.7 10.5 19.2 15.6 6.4 5 12.9 10.2 19.7 14.5 7 4.1 14.7 7 22.6 8.6h3.6c7.9-1.6 15.6-4.5 22.6-8.6 6.9-4.2 13.3-9.4 19.8-14.5 6.4-5.1 12.8-10.3 19.1-15.6l9.5-7.9c3.2-2.6 6-5.3 8.1-8.7 2.2-3.3 3.7-7 4.5-10.9l2.4-12.1 4.8-24.2 9.7-48.4 2.4-12.1c0.7-3.8 1-7.9 1.2-11.9 0.3-8.1-0.1-16.3-1.3-24.3-1.1-8-3.2-15.8-6.1-23.3-2.8-7.5-6.7-14.6-11.5-21-4.8-6.4-10.5-12.1-17.1-16.8-6.5-4.7-13.7-8.4-21.3-11.4-3.8-1.3-7.6-2.7-11.6-3.6-2-0.5-3.9-1.1-6-1.4l-6-1.1c-2-0.4-4-0.6-6-0.8l-6.1-0.7c-4.1-0.3-8.4-0.5-12.5-0.8zm-2.4 279.9h-0.1 0.2q-0.1 0-0.1 0zm3.6 0q-0.1 0-0.1 0h0.2z"/>
						</g>
						<g>
							<path class="s5" d="m329.1 309c-1.9 7.4-2.3 15-2.7 22.7-0.2 7.7-1 15.4-1.5 23.1-1.2 15.4-1.4 30.8-0.5 46.2 0.1 0.3-0.2 0.5-0.4 0.6-0.3 0-0.5-0.2-0.6-0.5-0.9-7.7-1.7-15.4-2-23.2-0.3-7.7-0.4-15.5-0.2-23.3 0.1-7.7 0.4-15.5 1.2-23.2 0.9-7.7 1.9-15.6 4.8-23 0.2-0.5 0.7-0.8 1.3-0.6 0.4 0.2 0.7 0.7 0.6 1.2z"/>
						</g>
						<g>
							<path class="s5" d="m340.9 393.5c-4.3-2.6-8-6.1-11.2-9.9-3.2-3.9-6-8.1-7.8-12.8l1.5-0.9c3 3.9 5.9 7.7 9 11.4 3.1 3.7 6.4 7.2 9.6 11z"/>
						</g>
						<g>
							<path class="s5" d="m273.6 360.3c-1.3 5.5-3.3 10.9-6 16-2.6 5-5.8 9.8-9.6 14-0.2 0.2-0.6 0.2-0.8 0-0.2-0.2-0.2-0.5 0-0.7 3.4-4.4 6.5-9.1 9.1-14.1 2.6-4.9 4.7-10.1 6.4-15.4 0-0.3 0.3-0.4 0.6-0.4 0.2 0.1 0.3 0.4 0.3 0.6z"/>
						</g>
						<g>
							<g>
								<path class="s5" d="m192 226.1c2.5-0.7 4.8-0.8 7.2-0.9q3.5-0.1 7.1 0.2c4.7 0.2 9.3 0.9 13.9 1.6 0.1 0 0.2 0.1 0.2 0.2 0 0.1-0.1 0.2-0.2 0.2-4.7-0.5-9.3-0.9-14-0.9q-3.5 0-6.9 0.3c-2.3 0.2-4.7 0.5-6.7 1.1l-0.1 0.1c-0.5 0.1-1.1-0.1-1.2-0.7-0.2-0.5 0.1-1 0.6-1.2q0 0 0.1 0z"/>
							</g>
							<g>
								<path class="s5" d="m205.8 226.2c-7.3 0-13.1-7.8-13.1-17.5 0-9.6 5.8-17.5 13.1-17.5 7.3 0 13.2 7.9 13.2 17.5 0 9.7-5.9 17.5-13.2 17.5z"/>
							</g>
							<g>
								<path class="s6" d="m216 204.5c-2.7 0-4.8-2.6-4.8-5.8 0-3.3 2.1-5.9 4.8-5.9 2.7 0 4.9 2.6 4.9 5.9 0 3.2-2.2 5.8-4.9 5.8z"/>
							</g>
						</g>
						<g>
							<g>
								<path class="s5" d="m279.1 226.1c2.5-0.7 4.8-0.8 7.2-0.9q3.6-0.1 7.1 0.2c4.7 0.2 9.3 0.9 14 1.6 0 0 0.1 0.1 0.1 0.2 0 0.1-0.1 0.2-0.2 0.2-4.6-0.5-9.3-0.9-14-0.9q-3.5 0-6.9 0.3c-2.3 0.2-4.7 0.5-6.7 1.1l-0.1 0.1c-0.5 0.1-1-0.1-1.2-0.7-0.2-0.5 0.1-1 0.6-1.2q0.1 0 0.1 0z"/>
							</g>
							<g>
								<path class="s5" d="m293.8 226.2c-7.3 0-13.2-7.8-13.2-17.5 0-9.6 5.9-17.5 13.2-17.5 7.3 0 13.2 7.9 13.2 17.5 0 9.7-5.9 17.5-13.2 17.5z"/>
							</g>
							<g>
								<path class="s6" d="m302.5 204.5c-2.7 0-4.9-2.6-4.9-5.8 0-3.3 2.2-5.9 4.9-5.9 2.7 0 4.8 2.6 4.8 5.9 0 3.2-2.1 5.8-4.8 5.8z"/>
							</g>
						</g>
						<g>
							<g>
								<path class="s5" d="m371.9 203.7c0.9-1.8 1.6-3.9 1-5.7-0.5-2-2.5-2.8-4.4-3-1.9-0.1-3.9 0.4-5.6 1.3-1.8 0.9-3.4 2.2-5 3.5-0.4 0.4-1 0.3-1.4-0.1-0.3-0.4-0.3-1.1 0.2-1.4q0 0 0 0c1.7-1.3 3.5-2.5 5.5-3.4 2-0.9 4.2-1.4 6.4-1.1 1.1 0.2 2.2 0.5 3.2 1.2 1 0.6 1.7 1.7 1.9 2.7 0.5 2.3-0.4 4.4-1.5 6.2 0 0.1-0.2 0.2-0.3 0.1-0.1-0.1-0.1-0.2 0-0.3z"/>
							</g>
							<g>
								<path class="s5" d="m354.5 215.9c2.4 1.7 3.9 4.5 4.2 7.5 0.4 3-0.7 6-2.3 8.4-1.6 2.5-3.5 4.6-4.9 7-1.4 2.3-2.4 4.9-2.9 7.6-0.1 0.6-0.6 0.9-1.1 0.8-0.6-0.1-0.9-0.6-0.8-1.1q0-0.1 0-0.1c0.6-2.9 1.8-5.6 3.4-8.1 1.6-2.5 3.6-4.5 5.2-6.8 1.6-2.3 2.6-4.9 2.4-7.6-0.2-2.7-1.5-5.3-3.6-7.1-0.2-0.1-0.2-0.3-0.1-0.5 0.1-0.1 0.4-0.2 0.5 0z"/>
							</g>
							<g>
								<path class="s5" d="m354.4 196.6c3.1-3.9 6.5-8.2 11.7-10.3 1.3-0.5 2.7-0.9 4.2-0.9 1.4 0 3.1 0.4 4.3 1.4 1.4 1.1 2 2.5 2.5 3.7q0.7 1.8 1.2 3.7c1.4 5 1.3 10.3 0.7 15.3-0.6 5-1.6 9.9-2.7 14.8-1.1 4.9-2 9.8-3.2 14.7-1.2 4.8-2.7 9.8-5.2 14.2-0.7 1.1-1.4 2.2-2.2 3.2-0.8 1-1.7 1.9-2.5 2.9-1.7 1.9-3.4 3.7-5.5 5.3-2.1 1.6-4.9 2.7-7.8 2-1.5-0.3-2.7-1.3-3.6-1.8-0.9-0.6-2-0.6-2-0.3l-1.5-3c2.3-0.8 3.9 0.4 4.9 1.2 1.1 1 1.8 1.7 2.8 2 1.9 0.7 4.4 0 6.2-1.5 1.8-1.4 3.5-3.3 5.2-5.1 0.8-0.9 1.6-1.8 2.4-2.7 0.7-1 1.4-2 2-3.1 4.7-8.5 5.9-18.7 8-28.4 1-4.9 2-9.8 2.5-14.7 0.4-4.8 0.4-9.8-0.9-14.4q-0.5-1.7-1.2-3.3c-0.5-1.1-1-2-1.7-2.5-1.4-1.1-3.8-0.9-5.8 0-4.1 1.8-7.2 5.7-10.1 9.7z"/>
							</g>
						</g>
						<g>
							<g>
								<path class="s5" d="m127.8 203.9c-1-1.8-2-3.9-1.4-6.2 0.2-1 0.9-2.1 1.9-2.7 0.9-0.7 2-1 3.1-1.2 2.2-0.3 4.5 0.2 6.5 1.1 2 0.9 3.8 2.1 5.4 3.4 0.5 0.3 0.6 0.9 0.2 1.3-0.3 0.5-0.9 0.6-1.3 0.2q-0.1 0-0.1 0c-1.6-1.3-3.2-2.6-4.9-3.5-1.8-0.9-3.7-1.4-5.6-1.3-2 0.2-4 1-4.5 3-0.5 1.8 0.2 3.9 1.1 5.7 0 0.1 0 0.2-0.1 0.3-0.1 0.1-0.2 0-0.3-0.1z"/>
							</g>
							<g>
								<path class="s5" d="m146 216.4c-2.1 1.8-3.5 4.4-3.7 7.1-0.2 2.7 0.9 5.3 2.5 7.6 1.5 2.3 3.5 4.3 5.1 6.8 1.7 2.5 2.8 5.2 3.5 8.1 0.1 0.6-0.3 1.1-0.8 1.2-0.5 0.1-1.1-0.2-1.2-0.7q0-0.1 0-0.1c-0.5-2.7-1.4-5.3-2.9-7.6-1.4-2.4-3.3-4.5-4.9-7-1.6-2.4-2.7-5.4-2.3-8.4 0.3-3 1.9-5.8 4.2-7.5 0.2-0.2 0.4-0.1 0.5 0 0.2 0.2 0.1 0.4 0 0.5z"/>
							</g>
							<g>
								<path class="s5" d="m143 198.7c-3-4-6-7.9-10.2-9.7-1.9-0.9-4.3-1.1-5.7 0-0.7 0.5-1.3 1.4-1.7 2.5q-0.8 1.6-1.3 3.3c-1.3 4.6-1.3 9.6-0.8 14.4 0.4 4.9 1.4 9.8 2.4 14.7 2.1 9.7 3.3 19.9 8 28.4 0.7 1.1 1.3 2.1 2 3.1 0.8 0.9 1.7 1.8 2.5 2.7 1.6 1.8 3.3 3.7 5.2 5.1 1.8 1.5 4.2 2.2 6.2 1.5 0.9-0.3 1.6-1 2.7-2 1-0.8 2.7-2 5-1.2l-1.6 3c0-0.3-1.1-0.3-2 0.3-0.9 0.5-2.1 1.5-3.6 1.8-2.9 0.7-5.7-0.4-7.8-2-2.1-1.6-3.7-3.5-5.4-5.3-0.9-1-1.8-1.9-2.6-2.9-0.8-1-1.5-2.1-2.1-3.2-2.6-4.4-4.1-9.4-5.3-14.2-1.2-4.9-2.1-9.8-3.2-14.7-1-4.9-2.1-9.8-2.7-14.8-0.5-5-0.6-10.3 0.7-15.3q0.5-1.9 1.3-3.8c0.4-1.1 1.1-2.5 2.4-3.6 1.3-1 2.9-1.4 4.4-1.4 1.4 0 2.8 0.3 4.2 0.9 5.1 2.1 8.6 6.4 11.7 10.3z"/>
							</g>
						</g>
						<g>
							<path class="s5" d="m265.3 233.6c0.5 2.2 0.7 4.4 1 6.6 0.2 2.2 0.3 4.4 0.2 6.7 0 0.2-0.2 0.4-0.5 0.4-0.2 0-0.3-0.1-0.4-0.3-0.5-2.2-0.7-4.4-0.9-6.7-0.1-2.2-0.3-4.4-0.2-6.7 0-0.2 0.2-0.4 0.4-0.4 0.2 0 0.4 0.2 0.4 0.4z"/>
						</g>
						<path class="s5" d="m375.3 147.2c-0.8-0.8-0.6-7.1-0.8-8.6q-0.9-4.5-2.4-8.9c-1.8-5-4.4-9.8-7.5-14.2-2.4-3.3-6.7-9.8-10.8-11.2q3.8-3.1 7.2-6.7c1.3-1.3 2.6-2.9 2.6-4.8 0-1.5-0.9-2.9-1.7-4.2-10.3-14.5-25-25.5-40.9-33.5-16-7.9-33.2-12.9-50.5-17-19.6-4.7-40.2-8.2-59.6-2.9-14 3.8-26.4 12.1-39.7 18-15.6 6.9-32.5 10.7-49.5 11.1 0.3 11.1 3.6 22.1 9.3 31.7-7.9 0.3-16-0.7-23.6-2.8 3.1 9.4 7.1 18.5 11.9 27.3-6.6 0.2-13.2-1-19.2-3.6 6 8 13.9 14.6 22.6 19.6-0.2 0.7-0.4 1.4-0.5 2.1-0.3 1.5 0 7.8-0.9 8.6 1.9-1.9 4.2-3.4 6.7-4.4-1.2 5.5-1 11.2 0.5 16.6 1-1.2 2.3-2.3 3.7-3.1 2.5 6.8 5.2 13.7 9.6 19.3l2.1 20.8 8.4 33.9c0 0 2.3 0.6 2.6-4.3 0 0 3.8-50.7-0.9-63.1l11.9-13.1c5.5 0.5 11 0.9 16.5 0.9 14.9 0.2 29.9-1.3 44.4-4.4 13.1-2.7 25.9-6.7 38.3-12q0.1 0 0.2-0.1-1.1 1.3-2.2 2.6c-7 7.5-15.6 14.1-25.7 16.1 14.2-0.5 28-5.7 40.3-13.1 7-4.2 13.5-9.1 19.7-14.3l35.8 22.6 0.5-0.1v0.1l13.3 14.8c-4.7 12.4-0.9 63.1-0.9 63.1 0.3 4.9 2.6 4.3 2.6 4.3l8.4-36.2 2.9-26.9c1.7-3.5 3.1-7.2 4.5-10.9 1.4 0.8 2.6 1.9 3.7 3.1 1.5-5.4 1.6-11.1 0.5-16.6 2.4 1 4.7 2.5 6.6 4.4z"/>
						<g>
							<path fill-rule="evenodd" class="s5" d="m246.5 441.6c-29.2-1.4-71.4-8.6-107-34.4-0.8-0.6-1.4-1-1.7-1.2-4.4-2.4-0.9-10.5-0.1-12.2l0.1-0.3 14.9-11.9 3.9 8.6c31.3 20 82.3 21.8 92.3 22 9.9-0.2 61-2 92.2-22l4-8.6 14.8 11.9 0.2 0.3c0.7 1.6 4.2 9.8-0.2 12.2-0.3 0.2-0.8 0.6-1.6 1.2-35.6 25.8-77.8 33-107 34.4zm-105.7-45.9c-1.4 3.2-2 6.7-1.2 7.2 0.4 0.2 1 0.6 2 1.3 34.9 25.4 76.4 32.4 105 33.8h4.7c28.5-1.4 70-8.4 104.9-33.8 1-0.7 1.6-1.1 2-1.3 0.8-0.5 0.2-4-1.2-7.2l-10.6-8.4-2.4 5.3-0.4 0.3c-32.1 20.9-84.5 22.7-94.7 22.9-10.2-0.2-62.6-2-94.7-22.9l-0.4-0.3-2.4-5.3z"/>
						</g>
						<g>
							<g>
								<g>
									<g>
										<path class="s5" d="m2.7 501.2c1.4-6.9 2.8-13.8 4.7-20.5 2.1-7.2 4.7-14.3 8.7-20.6 1.9-3.2 4.1-6.2 6.7-8.6 2.6-2.4 5.9-4 9.3-5.6 6.9-3.1 14.1-5.7 21.3-8 14.6-4.6 29.5-8.3 44.1-13.3q5.5-1.8 10.9-4c1.8-0.7 3.6-1.5 5.4-2.4l5.2-2.6c6.8-3.5 13.5-7 20.3-10.9l-1.1-1.8c-6.6 3.5-13.6 6.9-20.5 10.3l-5.2 2.4c-1.7 0.8-3.4 1.5-5.2 2.1q-5.3 2.1-10.8 3.8c-14.5 4.7-29.5 8.1-44.2 12.8-7.4 2.3-14.7 4.8-21.8 8-3.6 1.6-7.2 3.4-10.4 6.2-3.1 2.8-5.3 6.1-7.4 9.5-4.1 6.8-6.9 14.2-8.7 21.8-1.8 7.1-2.9 14.3-3.8 21.4 0 0 2.5 0 2.5 0z"/>
									</g>
								</g>
							</g>
							<g>
								<g>
									<g>
										<path class="s5" d="m386.4 418.2c1.7 0.9 3.6 1.7 5.3 2.4q5.4 2.2 10.9 4c14.7 5 29.6 8.7 44.1 13.3 7.3 2.3 14.5 4.9 21.4 8 3.4 1.5 6.7 3.2 9.2 5.6 2.7 2.4 4.8 5.4 6.8 8.6 3.9 6.3 6.6 13.3 8.7 20.6 1.9 6.7 3.2 13.6 4.7 20.5h2.5c-0.9-7.2-2-14.3-3.8-21.4-1.8-7.6-4.6-15-8.7-21.8-2.1-3.4-4.3-6.7-7.4-9.5-3.2-2.8-6.9-4.7-10.4-6.2-7.1-3.2-14.4-5.8-21.8-8.1-14.8-4.6-29.7-8-44.2-12.7q-5.5-1.7-10.8-3.8c-1.8-0.7-3.5-1.3-5.3-2.1l-5.1-2.5c-6.9-3.3-13.9-6.7-20.5-10.2l-1.2 1.8c6.8 3.9 13.6 7.4 20.4 10.9z"/>
									</g>
								</g>
							</g>
						</g>
						<g>
							<g>
								<path class="s5" d="m152.6 415q-0.1 0-0.1 0c-0.4-0.1-0.7-0.5-0.7-0.9 1-7.1 3-14.1 6-20.6 0.2-0.4 0.7-0.6 1.1-0.4 0.4 0.2 0.5 0.6 0.4 1-3 6.4-5 13.2-5.9 20.2-0.1 0.4-0.4 0.7-0.8 0.7z"/>
							</g>
							<g>
								<path class="s5" d="m165.1 421.9q0 0-0.1 0c-0.4 0-0.7-0.4-0.7-0.8 0.5-7.5 2.3-14.8 5.2-21.7 0.2-0.4 0.7-0.6 1.1-0.4 0.3 0.2 0.5 0.6 0.4 1-2.9 6.8-4.6 13.9-5.1 21.2-0.1 0.4-0.4 0.7-0.8 0.7z"/>
							</g>
							<g>
								<path class="s5" d="m180.2 427.3q-0.1 0-0.1 0c-0.4 0-0.7-0.4-0.7-0.8 0.8-7.2 2.4-14.2 4.8-21 0.1-0.4 0.6-0.6 1-0.5 0.4 0.2 0.6 0.6 0.4 1-2.3 6.7-3.9 13.6-4.6 20.6-0.1 0.4-0.4 0.7-0.8 0.7z"/>
							</g>
							<g>
								<path class="s5" d="m196.8 433.6q-0.1 0-0.1 0c-0.4 0-0.7-0.4-0.7-0.8 0.7-8.3 2.6-16.3 5.7-24 0.2-0.4 0.6-0.6 1-0.4 0.4 0.1 0.6 0.6 0.5 1-3.1 7.5-5 15.4-5.7 23.5 0 0.4-0.3 0.7-0.7 0.7z"/>
							</g>
							<g>
								<path class="s5" d="m214.1 437.1c-0.4 0-0.7-0.3-0.8-0.6-0.3-2-0.1-4 0.2-6 0.8-6.2 1.9-12.5 3.4-18.6 0.1-0.5 0.5-0.7 0.9-0.6 0.4 0.1 0.7 0.5 0.6 0.9-1.4 6.1-2.6 12.3-3.4 18.5-0.2 2-0.4 3.8-0.2 5.5 0.1 0.4-0.2 0.8-0.6 0.9q-0.1 0-0.1 0z"/>
							</g>
							<g>
								<path class="s5" d="m231.5 439.7c-0.4 0-0.7-0.3-0.7-0.7-0.3-6.9 0-13.8 0.7-20.6 0.2-1.8 0.5-3.5 1.5-4.9 0.3-0.4 0.7-0.5 1.1-0.2 0.3 0.2 0.4 0.7 0.2 1.1-0.8 1.1-1 2.6-1.2 4.1-0.8 6.8-1 13.6-0.8 20.4 0 0.4-0.3 0.8-0.7 0.8q-0.1 0-0.1 0z"/>
							</g>
						</g>
						<g>
							<g>
								<path class="s5" d="m347.3 413.5c-0.4 0-0.7-0.3-0.7-0.7-1-7-3-12.3-5.9-18.7-0.2-0.4-0.1-0.8 0.3-1 0.4-0.2 0.9 0 1.1 0.4 3 6.5 5 11.9 6 19.1 0.1 0.4-0.2 0.8-0.7 0.9q0 0-0.1 0z"/>
							</g>
							<g>
								<path class="s5" d="m334.8 420.2c-0.4 0-0.7-0.3-0.7-0.7-0.6-7.5-2.4-13-5.1-19.5-0.2-0.4 0-0.8 0.4-1 0.4-0.2 0.8 0 1 0.4 2.8 6.6 4.7 12.3 5.2 20 0 0.4-0.3 0.8-0.7 0.8q0 0-0.1 0z"/>
							</g>
							<g>
								<path class="s5" d="m319.7 427.3c-0.4 0-0.7-0.3-0.7-0.7-0.8-7-2.4-13.9-4.7-20.6-0.2-0.4 0-0.8 0.5-1 0.4-0.1 0.8 0.1 0.9 0.5 2.4 6.8 4 13.8 4.8 21 0.1 0.4-0.3 0.8-0.7 0.8q0 0-0.1 0z"/>
							</g>
							<g>
								<path class="s5" d="m303.1 432.6c-0.4 0-0.7-0.4-0.7-0.8-0.6-7.5-2.4-14.4-5.6-22.4-0.2-0.4 0-0.9 0.4-1 0.4-0.2 0.8 0 1 0.4 3.3 8.2 5.1 15.2 5.7 22.9 0.1 0.4-0.3 0.8-0.7 0.8q0 0.1-0.1 0.1z"/>
							</g>
							<g>
								<path class="s5" d="m285.8 437.1q0 0-0.1 0c-0.4-0.1-0.7-0.5-0.6-0.9 0.3-1.7 0.1-3.5-0.2-5.5-0.8-6.2-1.9-12.4-3.4-18.5-0.1-0.4 0.2-0.8 0.6-0.9 0.4-0.1 0.9 0.1 1 0.6 1.4 6.1 2.5 12.3 3.4 18.6 0.2 2 0.4 4 0.1 6-0.1 0.3-0.4 0.6-0.8 0.6z"/>
							</g>
							<g>
								<path class="s5" d="m268.4 439.7q0 0-0.1 0c-0.4 0-0.7-0.4-0.7-0.8 0.2-6.8 0-13.6-0.8-20.4-0.1-1.5-0.4-3-1.2-4.1-0.2-0.4-0.1-0.9 0.2-1.1 0.4-0.3 0.9-0.2 1.1 0.2 1 1.4 1.3 3.1 1.5 4.9 0.7 6.8 1 13.7 0.8 20.6-0.1 0.4-0.4 0.7-0.8 0.7z"/>
							</g>
						</g>
						<g>
							<path class="s5" d="m250.2 439.7c-0.5 0-0.8-0.3-0.8-0.8v-24.7c0-0.4 0.3-0.8 0.8-0.8 0.4 0 0.7 0.4 0.7 0.8v24.7c0 0.5-0.3 0.8-0.7 0.8z"/>
						</g>
						<g>
							<path class="s5" d="m450 501.2c4.1-19.3 12.8-37.4 25.4-52.5 0.3-0.4 0.3-0.9-0.1-1.1-0.3-0.3-0.8-0.3-1.1 0.1-12.8 15.4-21.7 33.9-25.8 53.5z"/>
						</g>
						<g>
							<path class="s5" d="m48.1 501.2h1.6c-4.1-19.6-13-38.1-25.8-53.5-0.3-0.4-0.8-0.4-1.1-0.1-0.3 0.2-0.4 0.7-0.1 1.1 12.6 15.1 21.3 33.2 25.4 52.5z"/>
						</g>
						<g>
							<path class="s5" d="m262.2 185.3l9.9-11.2q0.4-0.5 0.9-0.6l0.5-0.1c4.9-1.3 9.8-2.2 14.8-3l7.3-1.2c1.3-0.1 2.4-0.3 3.6-0.6 1.7-0.3 3.1-0.2 4.6-0.1 2.8 0.1 5.4 0.6 8 1.3 2.5 0.7 5 1.6 7.4 2.6 4.8 2 9.4 4.6 13.3 8.1 0.3 0.3 0.4 0.8 0.1 1.1-0.3 0.2-0.6 0.3-0.9 0.2q-6.9-3-14-4.7c-4.7-1.1-9.6-1.9-14.1-1.9-1.1 0.1-2.2 0.2-2.9 0.4-1.3 0.3-2.6 0.5-3.9 0.8-2.5 0.4-5 0.8-7.5 1.1-5.1 0.5-10.1 1-15.2 0.9l1.4-0.7-12.1 9c-0.4 0.3-1 0.2-1.3-0.2-0.2-0.4-0.2-0.9 0.1-1.2z"/>
						</g>
						<g>
							<path class="s5" d="m235.9 186.7l-12.1-9 1.4 0.7c-5.1 0.1-10.1-0.4-15.1-0.9-2.6-0.3-5.1-0.7-7.6-1.1-1.2-0.3-2.6-0.5-3.9-0.8-0.7-0.2-1.8-0.3-2.9-0.4-4.5 0-9.4 0.8-14.1 1.9q-7.1 1.7-13.9 4.7c-0.4 0.1-0.9 0-1.1-0.4-0.1-0.4 0-0.7 0.2-0.9 3.9-3.5 8.5-6.1 13.3-8.2 2.4-0.9 4.9-1.8 7.5-2.5 2.5-0.7 5.1-1.2 7.9-1.3 1.5-0.1 2.9-0.2 4.6 0.1 1.2 0.2 2.3 0.5 3.6 0.6l7.4 1.2c4.9 0.8 9.8 1.7 14.7 3l0.5 0.1q0.6 0.2 0.9 0.5l10 11.3c0.3 0.4 0.3 1-0.1 1.3-0.4 0.3-0.9 0.3-1.2 0.1z"/>
						</g>
						<g>
							<path class="s5" d="m241.7 278.6q2.1 1.2 4.3 1.9c1.5 0.4 3 0.7 4.5 0.7 1.4 0 2.9-0.3 4.3-0.7 1.4-0.5 2.7-1.3 4.1-2 0.4-0.3 0.9-0.1 1.1 0.2 0.2 0.4 0.1 0.8-0.2 1-1.2 1.1-2.7 2.1-4.3 2.7-1.6 0.6-3.4 0.8-5.1 0.7-1.7-0.1-3.4-0.6-4.9-1.3-1.5-0.8-2.9-1.7-4-3-0.1 0 0-0.1 0-0.2q0.1 0 0.2 0z"/>
						</g>
						<g>
							<path class="s5" d="m235.6 267.8q-1.3 2.6-2.3 5.3c-0.3 0.9-0.7 1.7-0.4 2.4 0.3 0.8 0.9 1.5 1.5 2.3 1.2 1.4 2.6 2.6 4.2 2.9 1.7 0.3 3.4-0.2 5.2-0.8 0.5-0.1 1.1 0.1 1.3 0.7 0.1 0.5-0.2 1-0.7 1.2q0 0 0 0c-1.9 0.5-4 1-6.1 0.4-2.2-0.5-3.7-2.1-4.9-3.7-0.5-0.8-1.1-1.6-1.5-2.7-0.1-0.5-0.1-1.2 0.1-1.7 0.2-0.5 0.4-0.9 0.6-1.3q1.1-2.7 2.6-5.2c0.1-0.1 0.2-0.1 0.3 0 0.1 0 0.1 0.1 0.1 0.2z"/>
						</g>
						<g>
							<path class="s5" d="m265.1 267.6q1.5 2.5 2.7 5.1c0.2 0.5 0.4 0.9 0.5 1.4 0.2 0.5 0.3 1.1 0.1 1.7-0.3 1.1-0.9 1.8-1.5 2.6-1.1 1.6-2.6 3.2-4.7 3.8-2.1 0.6-4.3 0.2-6.1-0.2-0.6-0.1-0.9-0.7-0.8-1.2 0.2-0.5 0.7-0.9 1.2-0.7q0.1 0 0.1 0c1.8 0.5 3.5 0.9 5.2 0.6 1.6-0.4 3-1.6 4.2-3 0.5-0.7 1.2-1.5 1.4-2.2 0.3-0.7-0.1-1.5-0.4-2.5q-0.9-2.6-2.3-5.2c0-0.1 0-0.2 0.1-0.2 0.1-0.1 0.3-0.1 0.3 0z"/>
						</g>
					</g>
				</g>
			</g>
		</g>
	</g>
</svg>